<mxfile host="65bd71144e">
    <diagram id="oDxSM82rU9RVZHmqiZmc" name="第 1 页">
        <mxGraphModel dx="2133" dy="1891" grid="1" gridSize="10" guides="1" tooltips="1" connect="1" arrows="1" fold="1" page="1" pageScale="1" pageWidth="827" pageHeight="1169" math="0" shadow="0">
            <root>
                <mxCell id="0"/>
                <mxCell id="1" parent="0"/>
                <mxCell id="2" value="节点1&lt;br&gt;next" style="rounded=0;whiteSpace=wrap;html=1;" parent="1" vertex="1">
                    <mxGeometry x="170" y="190" width="60" height="40" as="geometry"/>
                </mxCell>
                <mxCell id="3" value="head" style="rounded=0;whiteSpace=wrap;html=1;" parent="1" vertex="1">
                    <mxGeometry x="40" y="190" width="60" height="40" as="geometry"/>
                </mxCell>
                <mxCell id="4" value="" style="shape=singleArrow;whiteSpace=wrap;html=1;" parent="1" vertex="1">
                    <mxGeometry x="120" y="200" width="40" height="20" as="geometry"/>
                </mxCell>
                <mxCell id="14" style="edgeStyle=none;html=1;exitX=1;exitY=1;exitDx=0;exitDy=0;" parent="1" source="6" edge="1">
                    <mxGeometry relative="1" as="geometry">
                        <mxPoint x="370" y="270" as="targetPoint"/>
                    </mxGeometry>
                </mxCell>
                <mxCell id="6" value="节点2&lt;br&gt;next" style="rounded=0;whiteSpace=wrap;html=1;" parent="1" vertex="1">
                    <mxGeometry x="290" y="190" width="60" height="40" as="geometry"/>
                </mxCell>
                <mxCell id="7" value="" style="shape=singleArrow;whiteSpace=wrap;html=1;" parent="1" vertex="1">
                    <mxGeometry x="240" y="200" width="40" height="20" as="geometry"/>
                </mxCell>
                <mxCell id="13" value="&lt;font style=&quot;font-size: 7px;&quot;&gt;末尾的话自动指向null&lt;/font&gt;" style="edgeStyle=none;html=1;" parent="1" source="8" edge="1">
                    <mxGeometry x="1" y="-41" relative="1" as="geometry">
                        <mxPoint x="470" y="240" as="targetPoint"/>
                        <mxPoint x="11" y="-19" as="offset"/>
                    </mxGeometry>
                </mxCell>
                <mxCell id="8" value="追加的节点&lt;br&gt;next" style="rounded=0;whiteSpace=wrap;html=1;" parent="1" vertex="1">
                    <mxGeometry x="380" y="280" width="60" height="40" as="geometry"/>
                </mxCell>
                <mxCell id="10" value="null" style="rounded=0;whiteSpace=wrap;html=1;" parent="1" vertex="1">
                    <mxGeometry x="409" y="190" width="60" height="40" as="geometry"/>
                </mxCell>
                <mxCell id="11" value="" style="shape=singleArrow;whiteSpace=wrap;html=1;" parent="1" vertex="1">
                    <mxGeometry x="359" y="200" width="40" height="20" as="geometry"/>
                </mxCell>
                <mxCell id="12" value="链表不为空的时候" style="rounded=0;whiteSpace=wrap;html=1;fillColor=#6a00ff;fontColor=#ffffff;strokeColor=#3700CC;" parent="1" vertex="1">
                    <mxGeometry x="40" y="130" width="120" height="30" as="geometry"/>
                </mxCell>
                <mxCell id="15" value="next去链接新的节点node" style="text;html=1;align=center;verticalAlign=middle;resizable=0;points=[];autosize=1;strokeColor=none;fillColor=none;fontSize=7;" parent="1" vertex="1">
                    <mxGeometry x="359" y="240" width="100" height="20" as="geometry"/>
                </mxCell>
                <mxCell id="18" value="head" style="rounded=0;whiteSpace=wrap;html=1;" parent="1" vertex="1">
                    <mxGeometry x="39" width="60" height="40" as="geometry"/>
                </mxCell>
                <mxCell id="20" style="edgeStyle=none;html=1;exitX=1;exitY=1;exitDx=0;exitDy=0;" parent="1" edge="1">
                    <mxGeometry relative="1" as="geometry">
                        <mxPoint x="130" y="70" as="targetPoint"/>
                        <mxPoint x="110" y="30" as="sourcePoint"/>
                    </mxGeometry>
                </mxCell>
                <mxCell id="23" value="&lt;font style=&quot;font-size: 7px;&quot;&gt;末尾的话自动指向null&lt;/font&gt;" style="edgeStyle=none;html=1;" parent="1" source="24" edge="1">
                    <mxGeometry x="1" y="-41" relative="1" as="geometry">
                        <mxPoint x="230" y="40" as="targetPoint"/>
                        <mxPoint x="11" y="-19" as="offset"/>
                    </mxGeometry>
                </mxCell>
                <mxCell id="24" value="追加的节点&lt;br&gt;next" style="rounded=0;whiteSpace=wrap;html=1;" parent="1" vertex="1">
                    <mxGeometry x="140" y="80" width="60" height="40" as="geometry"/>
                </mxCell>
                <mxCell id="25" value="null" style="rounded=0;whiteSpace=wrap;html=1;" parent="1" vertex="1">
                    <mxGeometry x="169" y="-10" width="60" height="40" as="geometry"/>
                </mxCell>
                <mxCell id="26" value="" style="shape=singleArrow;whiteSpace=wrap;html=1;" parent="1" vertex="1">
                    <mxGeometry x="119" width="40" height="20" as="geometry"/>
                </mxCell>
                <mxCell id="27" value="链表为空的时候" style="rounded=0;whiteSpace=wrap;html=1;fillColor=#6a00ff;fontColor=#ffffff;strokeColor=#3700CC;" parent="1" vertex="1">
                    <mxGeometry x="39" y="-60" width="120" height="30" as="geometry"/>
                </mxCell>
                <mxCell id="28" value="next去链接新的节点node" style="text;html=1;align=center;verticalAlign=middle;resizable=0;points=[];autosize=1;strokeColor=none;fillColor=none;fontSize=7;" parent="1" vertex="1">
                    <mxGeometry x="119" y="40" width="100" height="20" as="geometry"/>
                </mxCell>
                <mxCell id="29" value="append追加流程" style="rounded=0;whiteSpace=wrap;html=1;fillColor=#d80073;fontColor=#ffffff;strokeColor=#A50040;" parent="1" vertex="1">
                    <mxGeometry x="39" y="-170" width="561" height="30" as="geometry"/>
                </mxCell>
                <mxCell id="30" value="" style="shape=internalStorage;whiteSpace=wrap;html=1;backgroundOutline=1;fontSize=7;" parent="1" vertex="1">
                    <mxGeometry x="240" y="30" width="80" height="80" as="geometry"/>
                </mxCell>
                <mxCell id="31" value="insert插入流程" style="rounded=0;whiteSpace=wrap;html=1;fillColor=#d80073;fontColor=#ffffff;strokeColor=#A50040;" parent="1" vertex="1">
                    <mxGeometry y="410" width="561" height="30" as="geometry"/>
                </mxCell>
                <mxCell id="33" style="edgeStyle=none;html=1;exitX=1;exitY=0.5;exitDx=0;exitDy=0;fontSize=7;" parent="1" source="32" edge="1">
                    <mxGeometry relative="1" as="geometry">
                        <mxPoint x="150" y="620" as="targetPoint"/>
                    </mxGeometry>
                </mxCell>
                <mxCell id="40" style="edgeStyle=none;html=1;exitX=0.75;exitY=1;exitDx=0;exitDy=0;fontSize=7;" parent="1" source="32" edge="1">
                    <mxGeometry relative="1" as="geometry">
                        <mxPoint x="120" y="680" as="targetPoint"/>
                    </mxGeometry>
                </mxCell>
                <mxCell id="32" value="head" style="rounded=0;whiteSpace=wrap;html=1;" parent="1" vertex="1">
                    <mxGeometry x="39" y="600" width="81" height="40" as="geometry"/>
                </mxCell>
                <mxCell id="35" style="edgeStyle=none;html=1;exitX=1;exitY=0.5;exitDx=0;exitDy=0;fontSize=7;" parent="1" source="34" edge="1">
                    <mxGeometry relative="1" as="geometry">
                        <mxPoint x="270" y="620" as="targetPoint"/>
                    </mxGeometry>
                </mxCell>
                <mxCell id="34" value="节点1&lt;br&gt;next" style="rounded=0;whiteSpace=wrap;html=1;" parent="1" vertex="1">
                    <mxGeometry x="159" y="600" width="71" height="40" as="geometry"/>
                </mxCell>
                <mxCell id="37" value="节点2&lt;br&gt;next" style="rounded=0;whiteSpace=wrap;html=1;" parent="1" vertex="1">
                    <mxGeometry x="269" y="600" width="71" height="40" as="geometry"/>
                </mxCell>
                <mxCell id="41" style="edgeStyle=none;html=1;exitX=0.75;exitY=0;exitDx=0;exitDy=0;fontSize=7;" parent="1" source="38" edge="1">
                    <mxGeometry relative="1" as="geometry">
                        <mxPoint x="180" y="650" as="targetPoint"/>
                    </mxGeometry>
                </mxCell>
                <mxCell id="38" value="插入节点3&lt;br&gt;next" style="rounded=0;whiteSpace=wrap;html=1;" parent="1" vertex="1">
                    <mxGeometry x="110" y="690" width="71" height="40" as="geometry"/>
                </mxCell>
                <mxCell id="39" value="插入到第一个情况" style="rounded=0;whiteSpace=wrap;html=1;fillColor=#6a00ff;fontColor=#ffffff;strokeColor=#3700CC;" parent="1" vertex="1">
                    <mxGeometry x="39" y="520" width="120" height="30" as="geometry"/>
                </mxCell>
                <mxCell id="42" style="edgeStyle=none;html=1;exitX=1;exitY=0.5;exitDx=0;exitDy=0;fontSize=7;" parent="1" source="44" edge="1">
                    <mxGeometry relative="1" as="geometry">
                        <mxPoint x="155" y="880" as="targetPoint"/>
                    </mxGeometry>
                </mxCell>
                <mxCell id="44" value="head" style="rounded=0;whiteSpace=wrap;html=1;" parent="1" vertex="1">
                    <mxGeometry x="44" y="860" width="81" height="40" as="geometry"/>
                </mxCell>
                <mxCell id="45" style="edgeStyle=none;html=1;exitX=1;exitY=0.5;exitDx=0;exitDy=0;fontSize=7;" parent="1" source="46" edge="1">
                    <mxGeometry relative="1" as="geometry">
                        <mxPoint x="275" y="880" as="targetPoint"/>
                    </mxGeometry>
                </mxCell>
                <mxCell id="53" style="edgeStyle=none;html=1;exitX=0.75;exitY=1;exitDx=0;exitDy=0;fontSize=7;" parent="1" source="46" target="52" edge="1">
                    <mxGeometry relative="1" as="geometry"/>
                </mxCell>
                <mxCell id="46" value="节点1&lt;br&gt;next" style="rounded=0;whiteSpace=wrap;html=1;" parent="1" vertex="1">
                    <mxGeometry x="164" y="860" width="71" height="40" as="geometry"/>
                </mxCell>
                <mxCell id="55" style="edgeStyle=none;html=1;exitX=1;exitY=0.5;exitDx=0;exitDy=0;fontSize=7;" parent="1" source="47" edge="1">
                    <mxGeometry relative="1" as="geometry">
                        <mxPoint x="380" y="880" as="targetPoint"/>
                    </mxGeometry>
                </mxCell>
                <mxCell id="47" value="节点2&lt;br&gt;next" style="rounded=0;whiteSpace=wrap;html=1;" parent="1" vertex="1">
                    <mxGeometry x="274" y="860" width="71" height="40" as="geometry"/>
                </mxCell>
                <mxCell id="50" value="插入任意位置的情况" style="rounded=0;whiteSpace=wrap;html=1;fillColor=#6a00ff;fontColor=#ffffff;strokeColor=#3700CC;" parent="1" vertex="1">
                    <mxGeometry x="44" y="780" width="120" height="30" as="geometry"/>
                </mxCell>
                <mxCell id="51" style="edgeStyle=none;html=1;exitX=0.75;exitY=0;exitDx=0;exitDy=0;fontSize=7;" parent="1" source="52" edge="1">
                    <mxGeometry relative="1" as="geometry">
                        <mxPoint x="310" y="900" as="targetPoint"/>
                    </mxGeometry>
                </mxCell>
                <mxCell id="52" value="插入节点3&lt;br&gt;next" style="rounded=0;whiteSpace=wrap;html=1;" parent="1" vertex="1">
                    <mxGeometry x="240" y="940" width="71" height="40" as="geometry"/>
                </mxCell>
                <mxCell id="54" value="节点2&lt;br&gt;next" style="rounded=0;whiteSpace=wrap;html=1;" parent="1" vertex="1">
                    <mxGeometry x="388" y="860" width="71" height="40" as="geometry"/>
                </mxCell>
                <mxCell id="56" style="edgeStyle=none;html=1;exitX=1;exitY=0.5;exitDx=0;exitDy=0;fontSize=7;" parent="1" source="58" edge="1">
                    <mxGeometry relative="1" as="geometry">
                        <mxPoint x="169" y="1270" as="targetPoint"/>
                    </mxGeometry>
                </mxCell>
                <mxCell id="77" style="edgeStyle=none;html=1;exitX=1;exitY=1;exitDx=0;exitDy=0;entryX=0.097;entryY=1.07;entryDx=0;entryDy=0;entryPerimeter=0;fontSize=7;" parent="1" source="58" target="61" edge="1">
                    <mxGeometry relative="1" as="geometry">
                        <Array as="points">
                            <mxPoint x="220" y="1320"/>
                        </Array>
                    </mxGeometry>
                </mxCell>
                <mxCell id="58" value="head" style="rounded=0;whiteSpace=wrap;html=1;" parent="1" vertex="1">
                    <mxGeometry x="58" y="1250" width="81" height="40" as="geometry"/>
                </mxCell>
                <mxCell id="59" style="edgeStyle=none;html=1;exitX=1;exitY=0.5;exitDx=0;exitDy=0;fontSize=7;" parent="1" source="60" edge="1">
                    <mxGeometry relative="1" as="geometry">
                        <mxPoint x="289" y="1270" as="targetPoint"/>
                    </mxGeometry>
                </mxCell>
                <mxCell id="60" value="节点1&lt;br&gt;next" style="rounded=0;whiteSpace=wrap;html=1;" parent="1" vertex="1">
                    <mxGeometry x="170" y="1250" width="71" height="40" as="geometry"/>
                </mxCell>
                <mxCell id="66" style="edgeStyle=none;html=1;fontSize=7;" parent="1" source="61" edge="1">
                    <mxGeometry relative="1" as="geometry">
                        <mxPoint x="400" y="1270" as="targetPoint"/>
                    </mxGeometry>
                </mxCell>
                <mxCell id="61" value="节点2&lt;br&gt;next" style="rounded=0;whiteSpace=wrap;html=1;" parent="1" vertex="1">
                    <mxGeometry x="288" y="1250" width="71" height="40" as="geometry"/>
                </mxCell>
                <mxCell id="64" value="删除第一个的情况" style="rounded=0;whiteSpace=wrap;html=1;fillColor=#6a00ff;fontColor=#ffffff;strokeColor=#3700CC;" parent="1" vertex="1">
                    <mxGeometry x="58" y="1170" width="152" height="30" as="geometry"/>
                </mxCell>
                <mxCell id="65" value="removeAt根据索引删除流程" style="rounded=0;whiteSpace=wrap;html=1;fillColor=#d80073;fontColor=#ffffff;strokeColor=#A50040;" parent="1" vertex="1">
                    <mxGeometry x="10" y="1080" width="561" height="30" as="geometry"/>
                </mxCell>
                <mxCell id="68" value="节点3&lt;br&gt;next" style="rounded=0;whiteSpace=wrap;html=1;" parent="1" vertex="1">
                    <mxGeometry x="410" y="1250" width="71" height="40" as="geometry"/>
                </mxCell>
                <mxCell id="75" style="edgeStyle=none;html=1;exitX=1;exitY=0;exitDx=0;exitDy=0;entryX=0;entryY=1;entryDx=0;entryDy=0;fontSize=7;" parent="1" source="60" target="60" edge="1">
                    <mxGeometry relative="1" as="geometry"/>
                </mxCell>
                <mxCell id="76" style="edgeStyle=none;html=1;exitX=0;exitY=0;exitDx=0;exitDy=0;entryX=1;entryY=1;entryDx=0;entryDy=0;fontSize=7;" parent="1" source="60" target="60" edge="1">
                    <mxGeometry relative="1" as="geometry"/>
                </mxCell>
                <mxCell id="78" style="edgeStyle=none;html=1;exitX=1;exitY=0.5;exitDx=0;exitDy=0;fontSize=7;" parent="1" source="80" edge="1">
                    <mxGeometry relative="1" as="geometry">
                        <mxPoint x="169" y="1450" as="targetPoint"/>
                    </mxGeometry>
                </mxCell>
                <mxCell id="80" value="head" style="rounded=0;whiteSpace=wrap;html=1;" parent="1" vertex="1">
                    <mxGeometry x="58" y="1430" width="81" height="40" as="geometry"/>
                </mxCell>
                <mxCell id="81" style="edgeStyle=none;html=1;exitX=1;exitY=0.5;exitDx=0;exitDy=0;fontSize=7;" parent="1" source="82" edge="1">
                    <mxGeometry relative="1" as="geometry">
                        <mxPoint x="289" y="1450" as="targetPoint"/>
                    </mxGeometry>
                </mxCell>
                <mxCell id="93" style="edgeStyle=none;html=1;exitX=1;exitY=0.5;exitDx=0;exitDy=0;entryX=0;entryY=0.5;entryDx=0;entryDy=0;fontSize=7;" parent="1" source="82" target="86" edge="1">
                    <mxGeometry relative="1" as="geometry">
                        <Array as="points">
                            <mxPoint x="330" y="1530"/>
                        </Array>
                    </mxGeometry>
                </mxCell>
                <mxCell id="82" value="节点1&lt;br&gt;next" style="rounded=0;whiteSpace=wrap;html=1;" parent="1" vertex="1">
                    <mxGeometry x="170" y="1430" width="71" height="40" as="geometry"/>
                </mxCell>
                <mxCell id="83" style="edgeStyle=none;html=1;fontSize=7;" parent="1" source="84" edge="1">
                    <mxGeometry relative="1" as="geometry">
                        <mxPoint x="400" y="1450" as="targetPoint"/>
                    </mxGeometry>
                </mxCell>
                <mxCell id="89" style="edgeStyle=none;html=1;exitX=0;exitY=0;exitDx=0;exitDy=0;fontSize=7;" parent="1" source="84" edge="1">
                    <mxGeometry relative="1" as="geometry">
                        <mxPoint x="360" y="1480" as="targetPoint"/>
                    </mxGeometry>
                </mxCell>
                <mxCell id="90" style="edgeStyle=none;html=1;exitX=1;exitY=0;exitDx=0;exitDy=0;fontSize=7;" parent="1" source="84" edge="1">
                    <mxGeometry relative="1" as="geometry">
                        <mxPoint x="290" y="1470" as="targetPoint"/>
                    </mxGeometry>
                </mxCell>
                <mxCell id="84" value="节点2&lt;br&gt;next" style="rounded=0;whiteSpace=wrap;html=1;" parent="1" vertex="1">
                    <mxGeometry x="284" y="1430" width="71" height="40" as="geometry"/>
                </mxCell>
                <mxCell id="85" value="删除第一个的情况" style="rounded=0;whiteSpace=wrap;html=1;fillColor=#6a00ff;fontColor=#ffffff;strokeColor=#3700CC;" parent="1" vertex="1">
                    <mxGeometry x="58" y="1350" width="152" height="30" as="geometry"/>
                </mxCell>
                <mxCell id="86" value="节点3&lt;br&gt;next" style="rounded=0;whiteSpace=wrap;html=1;" parent="1" vertex="1">
                    <mxGeometry x="410" y="1430" width="71" height="40" as="geometry"/>
                </mxCell>
                <mxCell id="91" style="edgeStyle=none;html=1;exitX=0;exitY=0;exitDx=0;exitDy=0;entryX=1;entryY=1;entryDx=0;entryDy=0;fontSize=7;" parent="1" source="84" target="84" edge="1">
                    <mxGeometry relative="1" as="geometry">
                        <Array as="points">
                            <mxPoint x="320" y="1450"/>
                        </Array>
                    </mxGeometry>
                </mxCell>
                <mxCell id="92" style="edgeStyle=none;html=1;exitX=1;exitY=0;exitDx=0;exitDy=0;entryX=0;entryY=1;entryDx=0;entryDy=0;fontSize=7;" parent="1" source="84" target="84" edge="1">
                    <mxGeometry relative="1" as="geometry">
                        <Array as="points">
                            <mxPoint x="310" y="1460"/>
                        </Array>
                    </mxGeometry>
                </mxCell>
                <mxCell id="94" value="update更改流程" style="rounded=0;whiteSpace=wrap;html=1;fillColor=#d80073;fontColor=#ffffff;strokeColor=#A50040;" parent="1" vertex="1">
                    <mxGeometry x="-0.5" y="1570" width="561" height="30" as="geometry"/>
                </mxCell>
                <mxCell id="95" style="edgeStyle=none;html=1;exitX=1;exitY=0.5;exitDx=0;exitDy=0;fontSize=7;" parent="1" source="96" edge="1">
                    <mxGeometry relative="1" as="geometry">
                        <mxPoint x="169" y="1660" as="targetPoint"/>
                    </mxGeometry>
                </mxCell>
                <mxCell id="106" style="edgeStyle=none;html=1;exitX=0.75;exitY=1;exitDx=0;exitDy=0;entryX=0.09;entryY=0.003;entryDx=0;entryDy=0;entryPerimeter=0;fontSize=7;" parent="1" source="96" target="103" edge="1">
                    <mxGeometry relative="1" as="geometry"/>
                </mxCell>
                <mxCell id="96" value="head" style="rounded=0;whiteSpace=wrap;html=1;" parent="1" vertex="1">
                    <mxGeometry x="58" y="1640" width="81" height="40" as="geometry"/>
                </mxCell>
                <mxCell id="97" style="edgeStyle=none;html=1;exitX=1;exitY=0.5;exitDx=0;exitDy=0;fontSize=7;" parent="1" source="99" edge="1">
                    <mxGeometry relative="1" as="geometry">
                        <mxPoint x="289" y="1660" as="targetPoint"/>
                    </mxGeometry>
                </mxCell>
                <mxCell id="99" value="节点1&lt;br&gt;next" style="rounded=0;whiteSpace=wrap;html=1;" parent="1" vertex="1">
                    <mxGeometry x="178" y="1640" width="71" height="40" as="geometry"/>
                </mxCell>
                <mxCell id="100" style="edgeStyle=none;html=1;exitX=1;exitY=0.5;exitDx=0;exitDy=0;fontSize=7;" parent="1" source="101" edge="1">
                    <mxGeometry relative="1" as="geometry">
                        <mxPoint x="394" y="1660" as="targetPoint"/>
                    </mxGeometry>
                </mxCell>
                <mxCell id="101" value="节点2&lt;br&gt;next" style="rounded=0;whiteSpace=wrap;html=1;" parent="1" vertex="1">
                    <mxGeometry x="288" y="1640" width="71" height="40" as="geometry"/>
                </mxCell>
                <mxCell id="102" style="edgeStyle=none;html=1;exitX=0.75;exitY=0;exitDx=0;exitDy=0;fontSize=7;" parent="1" source="103" edge="1">
                    <mxGeometry relative="1" as="geometry">
                        <mxPoint x="324" y="1680" as="targetPoint"/>
                    </mxGeometry>
                </mxCell>
                <mxCell id="103" value="插入节点3&lt;br&gt;next" style="rounded=0;whiteSpace=wrap;html=1;" parent="1" vertex="1">
                    <mxGeometry x="180" y="1734" width="71" height="40" as="geometry"/>
                </mxCell>
                <mxCell id="104" value="节点2&lt;br&gt;next" style="rounded=0;whiteSpace=wrap;html=1;" parent="1" vertex="1">
                    <mxGeometry x="402" y="1640" width="71" height="40" as="geometry"/>
                </mxCell>
                <mxCell id="107" value="update更改流程" style="rounded=0;whiteSpace=wrap;html=1;fillColor=#d80073;fontColor=#ffffff;strokeColor=#A50040;" parent="1" vertex="1">
                    <mxGeometry x="10" y="1860" width="561" height="30" as="geometry"/>
                </mxCell>
                <mxCell id="108" style="edgeStyle=none;html=1;exitX=1;exitY=0.5;exitDx=0;exitDy=0;fontSize=7;" parent="1" source="110" edge="1">
                    <mxGeometry relative="1" as="geometry">
                        <mxPoint x="169" y="1960" as="targetPoint"/>
                    </mxGeometry>
                </mxCell>
                <mxCell id="110" value="head" style="rounded=0;whiteSpace=wrap;html=1;" parent="1" vertex="1">
                    <mxGeometry x="58" y="1940" width="81" height="40" as="geometry"/>
                </mxCell>
                <mxCell id="111" style="edgeStyle=none;html=1;exitX=1;exitY=0.5;exitDx=0;exitDy=0;fontSize=7;" parent="1" source="112" edge="1">
                    <mxGeometry relative="1" as="geometry">
                        <mxPoint x="289" y="1960" as="targetPoint"/>
                    </mxGeometry>
                </mxCell>
                <mxCell id="112" value="节点1&lt;br&gt;next" style="rounded=0;whiteSpace=wrap;html=1;" parent="1" vertex="1">
                    <mxGeometry x="178" y="1940" width="71" height="40" as="geometry"/>
                </mxCell>
                <mxCell id="113" style="edgeStyle=none;html=1;exitX=1;exitY=0.5;exitDx=0;exitDy=0;fontSize=7;" parent="1" source="114" edge="1">
                    <mxGeometry relative="1" as="geometry">
                        <mxPoint x="394" y="1960" as="targetPoint"/>
                    </mxGeometry>
                </mxCell>
                <mxCell id="114" value="节点2&lt;br&gt;next" style="rounded=0;whiteSpace=wrap;html=1;" parent="1" vertex="1">
                    <mxGeometry x="288" y="1940" width="71" height="40" as="geometry"/>
                </mxCell>
                <mxCell id="117" value="节点2&lt;br&gt;next" style="rounded=0;whiteSpace=wrap;html=1;" parent="1" vertex="1">
                    <mxGeometry x="402" y="1940" width="71" height="40" as="geometry"/>
                </mxCell>
                <mxCell id="118" value="删除链表中的字节1,2,3，给值1&amp;nbsp; 删除1 不能动1不能删&amp;nbsp; &amp;nbsp;" style="rounded=0;whiteSpace=wrap;html=1;fillColor=#d80073;fontColor=#ffffff;strokeColor=#A50040;" parent="1" vertex="1">
                    <mxGeometry x="10" y="2030" width="561" height="30" as="geometry"/>
                </mxCell>
                <mxCell id="119" style="edgeStyle=none;html=1;exitX=1;exitY=0.5;exitDx=0;exitDy=0;fontSize=7;" parent="1" source="120" edge="1">
                    <mxGeometry relative="1" as="geometry">
                        <mxPoint x="169" y="2130" as="targetPoint"/>
                    </mxGeometry>
                </mxCell>
                <mxCell id="120" value="head" style="rounded=0;whiteSpace=wrap;html=1;" parent="1" vertex="1">
                    <mxGeometry x="58" y="2110" width="81" height="40" as="geometry"/>
                </mxCell>
                <mxCell id="121" style="edgeStyle=none;html=1;exitX=1;exitY=0.5;exitDx=0;exitDy=0;fontSize=7;" parent="1" source="122" edge="1">
                    <mxGeometry relative="1" as="geometry">
                        <mxPoint x="289" y="2130" as="targetPoint"/>
                    </mxGeometry>
                </mxCell>
                <mxCell id="130" style="edgeStyle=none;html=1;exitX=0.5;exitY=1;exitDx=0;exitDy=0;fontSize=7;" parent="1" source="122" edge="1">
                    <mxGeometry relative="1" as="geometry">
                        <mxPoint x="213.14814814814804" y="2170" as="targetPoint"/>
                    </mxGeometry>
                </mxCell>
                <mxCell id="122" value="1&lt;br&gt;next" style="rounded=0;whiteSpace=wrap;html=1;" parent="1" vertex="1">
                    <mxGeometry x="178" y="2110" width="71" height="40" as="geometry"/>
                </mxCell>
                <mxCell id="123" style="edgeStyle=none;html=1;exitX=1;exitY=0.5;exitDx=0;exitDy=0;fontSize=7;" parent="1" source="124" edge="1">
                    <mxGeometry relative="1" as="geometry">
                        <mxPoint x="394" y="2130" as="targetPoint"/>
                    </mxGeometry>
                </mxCell>
                <mxCell id="124" value="2&lt;br&gt;next" style="rounded=0;whiteSpace=wrap;html=1;" parent="1" vertex="1">
                    <mxGeometry x="288" y="2110" width="71" height="40" as="geometry"/>
                </mxCell>
                <mxCell id="125" value="3&lt;br&gt;next" style="rounded=0;whiteSpace=wrap;html=1;" parent="1" vertex="1">
                    <mxGeometry x="402" y="2110" width="71" height="40" as="geometry"/>
                </mxCell>
                <mxCell id="126" value="2&lt;br&gt;next" style="rounded=0;whiteSpace=wrap;html=1;" parent="1" vertex="1">
                    <mxGeometry x="181" y="2180" width="71" height="40" as="geometry"/>
                </mxCell>
                <mxCell id="127" style="edgeStyle=none;html=1;exitX=0;exitY=0;exitDx=0;exitDy=0;entryX=1;entryY=1;entryDx=0;entryDy=0;fontSize=7;" parent="1" source="124" target="124" edge="1">
                    <mxGeometry relative="1" as="geometry"/>
                </mxCell>
                <mxCell id="128" style="edgeStyle=none;html=1;exitX=1;exitY=0;exitDx=0;exitDy=0;entryX=0;entryY=1;entryDx=0;entryDy=0;fontSize=7;" parent="1" source="124" target="124" edge="1">
                    <mxGeometry relative="1" as="geometry"/>
                </mxCell>
                <mxCell id="129" value="思路&amp;nbsp; 1换成2&amp;nbsp; &amp;nbsp;删除2&amp;nbsp; 达到2,3" style="rounded=0;whiteSpace=wrap;html=1;fillColor=#d80073;fontColor=#ffffff;strokeColor=#A50040;" parent="1" vertex="1">
                    <mxGeometry x="10" y="2060" width="561" height="30" as="geometry"/>
                </mxCell>
                <mxCell id="131" value="" style="curved=1;endArrow=classic;html=1;fontSize=7;" parent="1" edge="1">
                    <mxGeometry width="50" height="50" relative="1" as="geometry">
                        <mxPoint x="260" y="300" as="sourcePoint"/>
                        <mxPoint x="310" y="250" as="targetPoint"/>
                        <Array as="points">
                            <mxPoint x="310" y="300"/>
                            <mxPoint x="260" y="250"/>
                        </Array>
                    </mxGeometry>
                </mxCell>
                <mxCell id="257" style="edgeStyle=none;html=1;exitX=0.5;exitY=0;exitDx=0;exitDy=0;fontSize=10;fontColor=#248E4E;" parent="1" source="134" edge="1">
                    <mxGeometry relative="1" as="geometry">
                        <mxPoint x="270" y="2590" as="targetPoint"/>
                    </mxGeometry>
                </mxCell>
                <mxCell id="134" value="head" style="rounded=0;whiteSpace=wrap;html=1;" parent="1" vertex="1">
                    <mxGeometry x="158.5" y="2620" width="81" height="40" as="geometry"/>
                </mxCell>
                <mxCell id="256" style="edgeStyle=none;html=1;exitX=0.5;exitY=0;exitDx=0;exitDy=0;entryX=0.653;entryY=1.042;entryDx=0;entryDy=0;entryPerimeter=0;fontSize=10;fontColor=#248E4E;" parent="1" source="137" target="148" edge="1">
                    <mxGeometry relative="1" as="geometry"/>
                </mxCell>
                <mxCell id="137" value="1&lt;br&gt;next" style="rounded=0;whiteSpace=wrap;html=1;" parent="1" vertex="1">
                    <mxGeometry x="161" y="2550" width="71" height="40" as="geometry"/>
                </mxCell>
                <mxCell id="138" style="edgeStyle=none;html=1;exitX=1;exitY=0.5;exitDx=0;exitDy=0;fontSize=7;" parent="1" source="139" edge="1">
                    <mxGeometry relative="1" as="geometry">
                        <mxPoint x="377" y="2570" as="targetPoint"/>
                    </mxGeometry>
                </mxCell>
                <mxCell id="139" value="2&lt;br&gt;next" style="rounded=0;whiteSpace=wrap;html=1;" parent="1" vertex="1">
                    <mxGeometry x="271" y="2550" width="71" height="40" as="geometry"/>
                </mxCell>
                <mxCell id="152" style="edgeStyle=none;html=1;exitX=1;exitY=0.5;exitDx=0;exitDy=0;fontSize=10;fontColor=#FF3333;" parent="1" source="140" edge="1">
                    <mxGeometry relative="1" as="geometry">
                        <mxPoint x="491" y="2570.074074074074" as="targetPoint"/>
                    </mxGeometry>
                </mxCell>
                <mxCell id="140" value="3&lt;br&gt;next" style="rounded=0;whiteSpace=wrap;html=1;" parent="1" vertex="1">
                    <mxGeometry x="385" y="2550" width="71" height="40" as="geometry"/>
                </mxCell>
                <mxCell id="145" style="edgeStyle=none;html=1;exitX=0.5;exitY=0;exitDx=0;exitDy=0;fontSize=7;" parent="1" source="141" edge="1">
                    <mxGeometry relative="1" as="geometry">
                        <mxPoint x="324.7222222222222" y="2600" as="targetPoint"/>
                    </mxGeometry>
                </mxCell>
                <mxCell id="141" value="current" style="rounded=0;whiteSpace=wrap;html=1;" parent="1" vertex="1">
                    <mxGeometry x="291" y="2620" width="71" height="40" as="geometry"/>
                </mxCell>
                <mxCell id="151" style="edgeStyle=none;html=1;exitX=0.5;exitY=1;exitDx=0;exitDy=0;fontSize=10;fontColor=#FF3333;" parent="1" source="146" edge="1">
                    <mxGeometry relative="1" as="geometry">
                        <mxPoint x="180" y="2540" as="targetPoint"/>
                    </mxGeometry>
                </mxCell>
                <mxCell id="146" value="newhead" style="rounded=0;whiteSpace=wrap;html=1;" parent="1" vertex="1">
                    <mxGeometry x="39" y="2440" width="81" height="40" as="geometry"/>
                </mxCell>
                <mxCell id="148" value="&lt;font color=&quot;#ff3333&quot; style=&quot;font-size: 10px;&quot;&gt;null&lt;/font&gt;" style="text;html=1;align=center;verticalAlign=middle;resizable=0;points=[];autosize=1;strokeColor=none;fillColor=none;fontSize=10;" parent="1" vertex="1">
                    <mxGeometry x="165" y="2450" width="40" height="30" as="geometry"/>
                </mxCell>
                <mxCell id="153" value="3&lt;br&gt;next" style="rounded=0;whiteSpace=wrap;html=1;" parent="1" vertex="1">
                    <mxGeometry x="491" y="2550" width="71" height="40" as="geometry"/>
                </mxCell>
                <mxCell id="157" value="反转" style="rounded=0;whiteSpace=wrap;html=1;fillColor=#d80073;fontColor=#ffffff;strokeColor=#A50040;" parent="1" vertex="1">
                    <mxGeometry x="10" y="2240" width="561" height="30" as="geometry"/>
                </mxCell>
                <mxCell id="190" style="edgeStyle=none;html=1;exitX=0.5;exitY=0;exitDx=0;exitDy=0;fontSize=9;fontColor=#FF3333;" parent="1" source="159" edge="1">
                    <mxGeometry relative="1" as="geometry">
                        <mxPoint x="270" y="2860" as="targetPoint"/>
                    </mxGeometry>
                </mxCell>
                <mxCell id="159" value="head" style="rounded=0;whiteSpace=wrap;html=1;" parent="1" vertex="1">
                    <mxGeometry x="176" y="2890" width="81" height="40" as="geometry"/>
                </mxCell>
                <mxCell id="189" style="edgeStyle=none;html=1;exitX=0.5;exitY=0;exitDx=0;exitDy=0;fontSize=9;fontColor=#FF3333;" parent="1" source="161" edge="1">
                    <mxGeometry relative="1" as="geometry">
                        <mxPoint x="195.25925925925912" y="2750" as="targetPoint"/>
                    </mxGeometry>
                </mxCell>
                <mxCell id="161" value="1&lt;br&gt;next" style="rounded=0;whiteSpace=wrap;html=1;" parent="1" vertex="1">
                    <mxGeometry x="159.5" y="2813" width="71" height="40" as="geometry"/>
                </mxCell>
                <mxCell id="162" style="edgeStyle=none;html=1;exitX=1;exitY=0.5;exitDx=0;exitDy=0;fontSize=7;" parent="1" source="163" edge="1">
                    <mxGeometry relative="1" as="geometry">
                        <mxPoint x="375.5000000000002" y="2833" as="targetPoint"/>
                    </mxGeometry>
                </mxCell>
                <mxCell id="163" value="2&lt;br&gt;next" style="rounded=0;whiteSpace=wrap;html=1;" parent="1" vertex="1">
                    <mxGeometry x="269.5" y="2813" width="71" height="40" as="geometry"/>
                </mxCell>
                <mxCell id="164" style="edgeStyle=none;html=1;exitX=1;exitY=0.5;exitDx=0;exitDy=0;fontSize=10;fontColor=#FF3333;" parent="1" source="165" edge="1">
                    <mxGeometry relative="1" as="geometry">
                        <mxPoint x="489.4999999999998" y="2833.074074074074" as="targetPoint"/>
                    </mxGeometry>
                </mxCell>
                <mxCell id="165" value="3&lt;br&gt;next" style="rounded=0;whiteSpace=wrap;html=1;" parent="1" vertex="1">
                    <mxGeometry x="383.5" y="2813" width="71" height="40" as="geometry"/>
                </mxCell>
                <mxCell id="166" style="edgeStyle=none;html=1;exitX=0.5;exitY=0;exitDx=0;exitDy=0;fontSize=7;" parent="1" source="167" edge="1">
                    <mxGeometry relative="1" as="geometry">
                        <mxPoint x="418.7222222222222" y="2853" as="targetPoint"/>
                    </mxGeometry>
                </mxCell>
                <mxCell id="167" value="current" style="rounded=0;whiteSpace=wrap;html=1;" parent="1" vertex="1">
                    <mxGeometry x="385" y="2873" width="71" height="40" as="geometry"/>
                </mxCell>
                <mxCell id="168" style="edgeStyle=none;html=1;exitX=0.5;exitY=1;exitDx=0;exitDy=0;fontSize=10;fontColor=#FF3333;" parent="1" source="169" edge="1">
                    <mxGeometry relative="1" as="geometry">
                        <mxPoint x="180" y="2810" as="targetPoint"/>
                    </mxGeometry>
                </mxCell>
                <mxCell id="169" value="newhead" style="rounded=0;whiteSpace=wrap;html=1;" parent="1" vertex="1">
                    <mxGeometry x="37.5" y="2703" width="81" height="40" as="geometry"/>
                </mxCell>
                <mxCell id="170" value="&lt;font color=&quot;#ff3333&quot; style=&quot;font-size: 10px;&quot;&gt;null&lt;/font&gt;" style="text;html=1;align=center;verticalAlign=middle;resizable=0;points=[];autosize=1;strokeColor=none;fillColor=none;fontSize=10;" parent="1" vertex="1">
                    <mxGeometry x="163.5" y="2713" width="40" height="30" as="geometry"/>
                </mxCell>
                <mxCell id="171" value="3&lt;br&gt;next" style="rounded=0;whiteSpace=wrap;html=1;" parent="1" vertex="1">
                    <mxGeometry x="489.5" y="2813" width="71" height="40" as="geometry"/>
                </mxCell>
                <mxCell id="172" value="&lt;div style=&quot;color: rgb(171, 178, 191); background-color: rgb(35, 39, 46); font-family: Menlo, Monaco, &amp;quot;Courier New&amp;quot;, monospace; line-height: 177%; font-size: 9px;&quot;&gt;&lt;div style=&quot;line-height: 177%;&quot;&gt;&lt;span style=&quot;color: rgb(127, 132, 142);&quot;&gt;1.让current节点指向下一个节点&lt;/span&gt;&lt;br&gt;&lt;/div&gt;&lt;div style=&quot;line-height: 177%;&quot;&gt;&lt;span style=&quot;color: #7f848e;&quot;&gt;&amp;nbsp;目的：保留下一个节点的引用，可以拿到并且不会销毁&lt;/span&gt;&lt;/div&gt;&lt;div style=&quot;line-height: 177%;&quot;&gt;&lt;span style=&quot;color: #7f848e;&quot;&gt;&amp;nbsp;2.改变head当前的指向的节点 指向newHead&lt;/span&gt;&lt;/div&gt;&lt;div style=&quot;line-height: 177%;&quot;&gt;&lt;span style=&quot;color: #7f848e;&quot;&gt;目的：对于第一个节点来说指向newHead就是指向的null&lt;/span&gt;&lt;/div&gt;&lt;div style=&quot;line-height: 177%;&quot;&gt;&lt;span style=&quot;color: #7f848e;&quot;&gt;3.让newHead指向下一个节点&lt;/span&gt;&lt;/div&gt;&lt;div style=&quot;line-height: 177%;&quot;&gt;&lt;span style=&quot;color: #7f848e;&quot;&gt;&amp;nbsp; &amp;nbsp; &amp;nbsp; 目的：下一次遍历时第二步操作可以让下一个节点指向第一个节点&lt;/span&gt;&lt;/div&gt;&lt;div style=&quot;line-height: 177%;&quot;&gt;&lt;span style=&quot;color: #7f848e;&quot;&gt;&amp;nbsp;4.让head移向下一个节点指向current&lt;/span&gt;&lt;/div&gt;&lt;/div&gt;" style="text;html=1;align=left;verticalAlign=middle;resizable=0;points=[];autosize=1;strokeColor=none;fillColor=none;fontSize=10;fontColor=#FF3333;" parent="1" vertex="1">
                    <mxGeometry x="242" y="2338" width="320" height="120" as="geometry"/>
                </mxCell>
                <mxCell id="193" style="edgeStyle=none;html=1;exitX=0.5;exitY=0;exitDx=0;exitDy=0;entryX=0.5;entryY=1;entryDx=0;entryDy=0;fontSize=9;fontColor=#FF3333;" parent="1" source="174" target="178" edge="1">
                    <mxGeometry relative="1" as="geometry"/>
                </mxCell>
                <mxCell id="174" value="head" style="rounded=0;whiteSpace=wrap;html=1;" parent="1" vertex="1">
                    <mxGeometry x="222" y="3230" width="81" height="40" as="geometry"/>
                </mxCell>
                <mxCell id="191" style="edgeStyle=none;html=1;exitX=0.5;exitY=0;exitDx=0;exitDy=0;entryX=0.664;entryY=0.993;entryDx=0;entryDy=0;entryPerimeter=0;fontSize=9;fontColor=#FF3333;" parent="1" source="176" target="185" edge="1">
                    <mxGeometry relative="1" as="geometry"/>
                </mxCell>
                <mxCell id="176" value="1&lt;br&gt;next" style="rounded=0;whiteSpace=wrap;html=1;" parent="1" vertex="1">
                    <mxGeometry x="169.5" y="3140" width="71" height="40" as="geometry"/>
                </mxCell>
                <mxCell id="188" style="edgeStyle=none;html=1;exitX=0;exitY=0.5;exitDx=0;exitDy=0;fontSize=9;fontColor=#FF3333;" parent="1" source="178" edge="1">
                    <mxGeometry relative="1" as="geometry">
                        <mxPoint x="244.5" y="3160.074074074074" as="targetPoint"/>
                    </mxGeometry>
                </mxCell>
                <mxCell id="178" value="2&lt;br&gt;next" style="rounded=0;whiteSpace=wrap;html=1;" parent="1" vertex="1">
                    <mxGeometry x="279.5" y="3140" width="71" height="40" as="geometry"/>
                </mxCell>
                <mxCell id="179" style="edgeStyle=none;html=1;exitX=1;exitY=0.5;exitDx=0;exitDy=0;fontSize=10;fontColor=#FF3333;" parent="1" source="180" edge="1">
                    <mxGeometry relative="1" as="geometry">
                        <mxPoint x="499.4999999999998" y="3160.074074074074" as="targetPoint"/>
                    </mxGeometry>
                </mxCell>
                <mxCell id="180" value="3&lt;br&gt;next" style="rounded=0;whiteSpace=wrap;html=1;" parent="1" vertex="1">
                    <mxGeometry x="393.5" y="3140" width="71" height="40" as="geometry"/>
                </mxCell>
                <mxCell id="181" style="edgeStyle=none;html=1;exitX=0.5;exitY=0;exitDx=0;exitDy=0;fontSize=7;" parent="1" source="182" edge="1">
                    <mxGeometry relative="1" as="geometry">
                        <mxPoint x="428.7222222222222" y="3180" as="targetPoint"/>
                    </mxGeometry>
                </mxCell>
                <mxCell id="182" value="current" style="rounded=0;whiteSpace=wrap;html=1;" parent="1" vertex="1">
                    <mxGeometry x="395" y="3200" width="71" height="40" as="geometry"/>
                </mxCell>
                <mxCell id="183" style="edgeStyle=none;html=1;exitX=0.5;exitY=1;exitDx=0;exitDy=0;fontSize=10;fontColor=#FF3333;" parent="1" source="184" edge="1">
                    <mxGeometry relative="1" as="geometry">
                        <mxPoint x="202.5" y="3130" as="targetPoint"/>
                    </mxGeometry>
                </mxCell>
                <mxCell id="184" value="newhead" style="rounded=0;whiteSpace=wrap;html=1;" parent="1" vertex="1">
                    <mxGeometry x="47.5" y="3030" width="81" height="40" as="geometry"/>
                </mxCell>
                <mxCell id="185" value="&lt;font color=&quot;#ff3333&quot; style=&quot;font-size: 10px;&quot;&gt;null&lt;/font&gt;" style="text;html=1;align=center;verticalAlign=middle;resizable=0;points=[];autosize=1;strokeColor=none;fillColor=none;fontSize=10;" parent="1" vertex="1">
                    <mxGeometry x="173.5" y="3040" width="40" height="30" as="geometry"/>
                </mxCell>
                <mxCell id="186" value="3&lt;br&gt;next" style="rounded=0;whiteSpace=wrap;html=1;" parent="1" vertex="1">
                    <mxGeometry x="499.5" y="3140" width="71" height="40" as="geometry"/>
                </mxCell>
                <mxCell id="208" style="edgeStyle=none;html=1;exitX=0.5;exitY=0;exitDx=0;exitDy=0;entryX=0.5;entryY=1;entryDx=0;entryDy=0;fontSize=9;fontColor=#FF3333;" parent="1" source="209" target="213" edge="1">
                    <mxGeometry relative="1" as="geometry"/>
                </mxCell>
                <mxCell id="209" value="head" style="rounded=0;whiteSpace=wrap;html=1;" parent="1" vertex="1">
                    <mxGeometry x="216" y="3580" width="81" height="40" as="geometry"/>
                </mxCell>
                <mxCell id="210" style="edgeStyle=none;html=1;exitX=0.5;exitY=0;exitDx=0;exitDy=0;entryX=0.664;entryY=0.993;entryDx=0;entryDy=0;entryPerimeter=0;fontSize=9;fontColor=#FF3333;" parent="1" source="211" target="220" edge="1">
                    <mxGeometry relative="1" as="geometry"/>
                </mxCell>
                <mxCell id="211" value="1&lt;br&gt;next" style="rounded=0;whiteSpace=wrap;html=1;" parent="1" vertex="1">
                    <mxGeometry x="163.5" y="3490" width="71" height="40" as="geometry"/>
                </mxCell>
                <mxCell id="212" style="edgeStyle=none;html=1;exitX=0;exitY=0.5;exitDx=0;exitDy=0;fontSize=9;fontColor=#FF3333;" parent="1" source="213" edge="1">
                    <mxGeometry relative="1" as="geometry">
                        <mxPoint x="238.50000000000023" y="3510.074074074074" as="targetPoint"/>
                    </mxGeometry>
                </mxCell>
                <mxCell id="213" value="2&lt;br&gt;next" style="rounded=0;whiteSpace=wrap;html=1;" parent="1" vertex="1">
                    <mxGeometry x="273.5" y="3490" width="71" height="40" as="geometry"/>
                </mxCell>
                <mxCell id="214" style="edgeStyle=none;html=1;exitX=1;exitY=0.5;exitDx=0;exitDy=0;fontSize=10;fontColor=#FF3333;" parent="1" source="215" edge="1">
                    <mxGeometry relative="1" as="geometry">
                        <mxPoint x="493.4999999999998" y="3510.074074074074" as="targetPoint"/>
                    </mxGeometry>
                </mxCell>
                <mxCell id="215" value="3&lt;br&gt;next" style="rounded=0;whiteSpace=wrap;html=1;" parent="1" vertex="1">
                    <mxGeometry x="387.5" y="3490" width="71" height="40" as="geometry"/>
                </mxCell>
                <mxCell id="216" style="edgeStyle=none;html=1;exitX=0.5;exitY=0;exitDx=0;exitDy=0;fontSize=7;" parent="1" source="217" edge="1">
                    <mxGeometry relative="1" as="geometry">
                        <mxPoint x="422.7222222222222" y="3530" as="targetPoint"/>
                    </mxGeometry>
                </mxCell>
                <mxCell id="217" value="current" style="rounded=0;whiteSpace=wrap;html=1;" parent="1" vertex="1">
                    <mxGeometry x="389" y="3550" width="71" height="40" as="geometry"/>
                </mxCell>
                <mxCell id="222" style="edgeStyle=none;html=1;exitX=0.5;exitY=1;exitDx=0;exitDy=0;fontSize=9;fontColor=#FF3333;" parent="1" source="219" edge="1">
                    <mxGeometry relative="1" as="geometry">
                        <mxPoint x="314" y="3470" as="targetPoint"/>
                    </mxGeometry>
                </mxCell>
                <mxCell id="219" value="newhead" style="rounded=0;whiteSpace=wrap;html=1;" parent="1" vertex="1">
                    <mxGeometry x="281" y="3370" width="81" height="40" as="geometry"/>
                </mxCell>
                <mxCell id="220" value="&lt;font color=&quot;#ff3333&quot; style=&quot;font-size: 10px;&quot;&gt;null&lt;/font&gt;" style="text;html=1;align=center;verticalAlign=middle;resizable=0;points=[];autosize=1;strokeColor=none;fillColor=none;fontSize=10;" parent="1" vertex="1">
                    <mxGeometry x="167.5" y="3390" width="40" height="30" as="geometry"/>
                </mxCell>
                <mxCell id="221" value="3&lt;br&gt;next" style="rounded=0;whiteSpace=wrap;html=1;" parent="1" vertex="1">
                    <mxGeometry x="493.5" y="3490" width="71" height="40" as="geometry"/>
                </mxCell>
                <mxCell id="251" style="edgeStyle=none;html=1;exitX=0.5;exitY=0;exitDx=0;exitDy=0;entryX=0;entryY=1;entryDx=0;entryDy=0;fontSize=9;fontColor=#FF3333;" parent="1" source="238" target="244" edge="1">
                    <mxGeometry relative="1" as="geometry"/>
                </mxCell>
                <mxCell id="238" value="head" style="rounded=0;whiteSpace=wrap;html=1;" parent="1" vertex="1">
                    <mxGeometry x="229" y="3960" width="81" height="40" as="geometry"/>
                </mxCell>
                <mxCell id="239" style="edgeStyle=none;html=1;exitX=0.5;exitY=0;exitDx=0;exitDy=0;entryX=0.664;entryY=0.993;entryDx=0;entryDy=0;entryPerimeter=0;fontSize=9;fontColor=#FF3333;" parent="1" source="240" target="249" edge="1">
                    <mxGeometry relative="1" as="geometry"/>
                </mxCell>
                <mxCell id="240" value="1&lt;br&gt;next" style="rounded=0;whiteSpace=wrap;html=1;" parent="1" vertex="1">
                    <mxGeometry x="96" y="3870" width="71" height="40" as="geometry"/>
                </mxCell>
                <mxCell id="241" style="edgeStyle=none;html=1;exitX=0;exitY=0.5;exitDx=0;exitDy=0;fontSize=9;fontColor=#FF3333;" parent="1" source="242" edge="1">
                    <mxGeometry relative="1" as="geometry">
                        <mxPoint x="171.00000000000023" y="3890.074074074074" as="targetPoint"/>
                    </mxGeometry>
                </mxCell>
                <mxCell id="242" value="2&lt;br&gt;next" style="rounded=0;whiteSpace=wrap;html=1;" parent="1" vertex="1">
                    <mxGeometry x="206" y="3870" width="71" height="40" as="geometry"/>
                </mxCell>
                <mxCell id="243" style="edgeStyle=none;html=1;exitX=1;exitY=0.5;exitDx=0;exitDy=0;fontSize=10;fontColor=#FF3333;" parent="1" source="244" edge="1">
                    <mxGeometry relative="1" as="geometry">
                        <mxPoint x="425.9999999999998" y="3890.074074074074" as="targetPoint"/>
                    </mxGeometry>
                </mxCell>
                <mxCell id="244" value="3&lt;br&gt;next" style="rounded=0;whiteSpace=wrap;html=1;" parent="1" vertex="1">
                    <mxGeometry x="320" y="3870" width="71" height="40" as="geometry"/>
                </mxCell>
                <mxCell id="245" style="edgeStyle=none;html=1;exitX=0.5;exitY=0;exitDx=0;exitDy=0;fontSize=7;" parent="1" source="246" edge="1">
                    <mxGeometry relative="1" as="geometry">
                        <mxPoint x="355.2222222222222" y="3910" as="targetPoint"/>
                    </mxGeometry>
                </mxCell>
                <mxCell id="246" value="current" style="rounded=0;whiteSpace=wrap;html=1;" parent="1" vertex="1">
                    <mxGeometry x="321.5" y="3930" width="71" height="40" as="geometry"/>
                </mxCell>
                <mxCell id="247" style="edgeStyle=none;html=1;exitX=0.5;exitY=1;exitDx=0;exitDy=0;fontSize=9;fontColor=#FF3333;" parent="1" source="248" edge="1">
                    <mxGeometry relative="1" as="geometry">
                        <mxPoint x="246.5" y="3850" as="targetPoint"/>
                    </mxGeometry>
                </mxCell>
                <mxCell id="248" value="newhead" style="rounded=0;whiteSpace=wrap;html=1;" parent="1" vertex="1">
                    <mxGeometry x="213.5" y="3750" width="81" height="40" as="geometry"/>
                </mxCell>
                <mxCell id="249" value="&lt;font color=&quot;#ff3333&quot; style=&quot;font-size: 10px;&quot;&gt;null&lt;/font&gt;" style="text;html=1;align=center;verticalAlign=middle;resizable=0;points=[];autosize=1;strokeColor=none;fillColor=none;fontSize=10;" parent="1" vertex="1">
                    <mxGeometry x="100" y="3770" width="40" height="30" as="geometry"/>
                </mxCell>
                <mxCell id="250" value="3&lt;br&gt;next" style="rounded=0;whiteSpace=wrap;html=1;" parent="1" vertex="1">
                    <mxGeometry x="426" y="3870" width="71" height="40" as="geometry"/>
                </mxCell>
                <mxCell id="252" value="&lt;div style=&quot;background-color: rgb(35, 39, 46); font-family: Menlo, Monaco, &amp;quot;Courier New&amp;quot;, monospace; line-height: 24px;&quot;&gt;&lt;font style=&quot;font-size: 10px;&quot; color=&quot;#318e15&quot;&gt;让head移向下一个节点指向current&lt;/font&gt;&lt;/div&gt;" style="text;html=1;align=center;verticalAlign=middle;resizable=0;points=[];autosize=1;strokeColor=none;fillColor=none;fontSize=9;fontColor=#FF3333;" parent="1" vertex="1">
                    <mxGeometry x="5" y="3670" width="190" height="40" as="geometry"/>
                </mxCell>
                <mxCell id="253" value="&lt;div style=&quot;background-color: rgb(35, 39, 46); font-family: Menlo, Monaco, &amp;quot;Courier New&amp;quot;, monospace; line-height: 24px;&quot;&gt;&lt;div style=&quot;line-height: 24px;&quot;&gt;&lt;font color=&quot;#148e59&quot; style=&quot;font-size: 10px;&quot;&gt;让newHead指向下一个节点&lt;/font&gt;&lt;/div&gt;&lt;/div&gt;" style="text;html=1;align=center;verticalAlign=middle;resizable=0;points=[];autosize=1;strokeColor=none;fillColor=none;fontSize=9;fontColor=#FF3333;" parent="1" vertex="1">
                    <mxGeometry x="30" y="3290" width="150" height="40" as="geometry"/>
                </mxCell>
                <mxCell id="254" value="&lt;div style=&quot;background-color: rgb(35, 39, 46); font-family: Menlo, Monaco, &amp;quot;Courier New&amp;quot;, monospace; line-height: 24px;&quot;&gt;&lt;font color=&quot;#1c8e4a&quot; style=&quot;font-size: 10px;&quot;&gt;改变head当前的指向的节点 指向newHead&lt;/font&gt;&lt;/div&gt;" style="text;html=1;align=center;verticalAlign=middle;resizable=0;points=[];autosize=1;strokeColor=none;fillColor=none;fontSize=10;fontColor=#148E59;" parent="1" vertex="1">
                    <mxGeometry x="2" y="2950" width="220" height="40" as="geometry"/>
                </mxCell>
                <mxCell id="255" value="&lt;div style=&quot;background-color: rgb(35, 39, 46); font-family: Menlo, Monaco, &amp;quot;Courier New&amp;quot;, monospace; font-size: 16px; line-height: 24px;&quot;&gt;&lt;span style=&quot;font-size: 10px;&quot;&gt;&lt;font color=&quot;#248e4e&quot;&gt;让current节点指向下一个节点&lt;/font&gt;&lt;/span&gt;&lt;/div&gt;" style="text;html=1;align=center;verticalAlign=middle;resizable=0;points=[];autosize=1;strokeColor=none;fillColor=none;fontSize=10;fontColor=#1C8E4A;" parent="1" vertex="1">
                    <mxGeometry x="395" y="2700" width="170" height="40" as="geometry"/>
                </mxCell>
            </root>
        </mxGraphModel>
    </diagram>
</mxfile>